HIERARCHY
ROOT SpineBase
{
  OFFSET 0.000000 0.000000 0.000000
  CHANNELS 6 Xposition Yposition Zposition Zrotation Xrotation Yrotation
  JOINT SpineMid
  {
    OFFSET 0.000000 27.388847 0.000000
    CHANNELS 3 Zrotation Xrotation Yrotation
    JOINT SpineShoulder
    {
      OFFSET -0.057030 20.345417 -0.643357
      CHANNELS 3 Zrotation Xrotation Yrotation
      JOINT Neck
      {
        OFFSET -0.042581 6.724693 -0.507192
        CHANNELS 3 Zrotation Xrotation Yrotation
        JOINT Head
        {
          OFFSET -3.988572 15.109662 1.908398
          CHANNELS 3 Zrotation Xrotation Yrotation
          End Site
          {
            OFFSET 0 0 0
          }
        }
      }
      JOINT ShoulderLeft
      {
        OFFSET -13.674413 -3.978220 9.124249
        CHANNELS 3 Zrotation Xrotation Yrotation
        JOINT ElbowLeft
        {
          OFFSET -0.437144 -27.207485 1.018993
          CHANNELS 3 Zrotation Xrotation Yrotation
          JOINT WristLeft
          {
            OFFSET 0.366515 -20.132268 -1.509817
            CHANNELS 3 Zrotation Xrotation Yrotation
            JOINT HandLeft
            {
              OFFSET 0.383138 -6.776525 -0.931845
              CHANNELS 3 Zrotation Xrotation Yrotation
              JOINT HandTipLeft
              {
                OFFSET 0.459143 -6.455090 -0.395136
                CHANNELS 3 Zrotation Xrotation Yrotation
                End Site
                {
                  OFFSET 0 0 0
                }
              }
              JOINT ThumbLeft
              {
                OFFSET -1.526774 -1.370990 -1.380596
                CHANNELS 3 Zrotation Xrotation Yrotation
                End Site
                {
                  OFFSET 0 0 0
                }
              }
            }
          }
        }
      }
      JOINT ShoulderRight
      {
        OFFSET 10.070919 -4.390375 -9.637689
        CHANNELS 3 Zrotation Xrotation Yrotation
        JOINT ElbowRight
        {
          OFFSET 6.925098 -20.092722 -2.688327
          CHANNELS 3 Zrotation Xrotation Yrotation
          JOINT WristRight
          {
            OFFSET -0.551798 -20.105525 -4.295005
            CHANNELS 3 Zrotation Xrotation Yrotation
            JOINT HandRight
            {
              OFFSET -1.684810 -7.164722 -0.788389
              CHANNELS 3 Zrotation Xrotation Yrotation
              JOINT HandTipRight
              {
                OFFSET 0.437112 -6.406865 -0.912321
                CHANNELS 3 Zrotation Xrotation Yrotation
                End Site
                {
                  OFFSET 0 0 0
                }
              }
              JOINT ThumbRight
              {
                OFFSET 2.141120 -2.818641 -1.447956
                CHANNELS 3 Zrotation Xrotation Yrotation
                End Site
                {
                  OFFSET 0 0 0
                }
              }
            }
          }
        }
      }
    }
  }
  JOINT HipLeft
  {
    OFFSET -5.248136 -0.102759 0.234215
    CHANNELS 3 Zrotation Xrotation Yrotation
    JOINT KneeLeft
    {
      OFFSET 8.135639 -30.120252 7.308520
      CHANNELS 3 Zrotation Xrotation Yrotation
      JOINT AnkleLeft
      {
        OFFSET 9.967701 -32.838158 9.486116
        CHANNELS 3 Zrotation Xrotation Yrotation
        JOINT FootLeft
        {
          OFFSET -0.828803 -9.540386 -3.073300
          CHANNELS 3 Zrotation Xrotation Yrotation
          End Site
          {
            OFFSET 0 0 0
          }
        }
      }
    }
  }
  JOINT HipRight
  {
    OFFSET 5.044731 1.290587 -6.561459
    CHANNELS 3 Zrotation Xrotation Yrotation
    JOINT KneeRight
    {
      OFFSET 11.639641 -37.494823 9.525052
      CHANNELS 3 Zrotation Xrotation Yrotation
      JOINT AnkleRight
      {
        OFFSET 5.165996 -26.771255 3.979796
        CHANNELS 3 Zrotation Xrotation Yrotation
        JOINT FootRight
        {
          OFFSET -3.630004 -6.543497 -3.013154
          CHANNELS 3 Zrotation Xrotation Yrotation
          End Site
          {
            OFFSET 0 0 0
          }
        }
      }
    }
  }
}
MOTION
Frames: 5
Frame Time: 0.033333
13.392280 75.554972 348.375641 3.390662 -10.767392 33.627952 -0.089417 -0.904752 -33.238310 0.111581 -0.149615 0.124781 -5.358924 -15.504622 -7.237446 0.000000 0.000000 0.000000 -88.816067 10.725847 16.413339 -113.874754 41.104534 -128.711264 -22.223923 -11.529624 -21.418306 30.794898 10.430233 53.223651 0.000000 0.000000 0.000000 0.000000 0.000000 0.000000 -161.166981 56.041150 -165.174323 -164.352765 -45.495763 -163.693019 6.299638 -3.132200 7.128487 -18.914536 11.262214 -1.828939 0.000000 0.000000 0.000000 0.000000 0.000000 0.000000 -0.175194 16.877531 -33.394707 8.200840 -4.202322 1.197936 -24.170544 30.549462 9.561453 0.000000 0.000000 0.000000 5.725848 21.620670 -32.050932 5.608509 -18.123820 -2.580714 -8.352010 9.747566 3.527700 0.000000 0.000000 0.000000
14.215388 73.755461 348.569290 4.189629 -11.010144 28.835224 -0.044567 -0.841476 -28.329541 0.053887 0.115792 0.149061 -5.408270 -23.651853 -9.799247 0.000000 0.000000 0.000000 -87.759522 13.602217 18.311746 -109.113195 52.391766 -148.593610 -8.369914 -14.316030 -2.775285 38.979698 19.501019 66.637160 0.000000 0.000000 0.000000 0.000000 0.000000 0.000000 -145.346032 63.423130 170.010631 -168.243163 -53.446802 -178.834808 10.856203 -9.621461 10.774474 -21.045160 14.353714 -2.778262 0.000000 0.000000 0.000000 0.000000 0.000000 0.000000 -2.453235 15.941746 -28.460839 7.739760 -2.747352 1.348621 -16.953355 23.597949 5.307546 0.000000 0.000000 0.000000 1.208854 22.530352 -26.917369 7.204036 -16.559292 -1.751185 -6.836392 -8.817262 12.658719 0.000000 0.000000 0.000000
14.957946 72.854901 348.712810 4.706835 -10.405840 22.864676 -0.127600 -0.316059 -22.305398 0.014773 0.502148 0.147353 -5.624925 -26.060707 -10.219451 0.000000 0.000000 0.000000 -78.997289 18.825694 18.393250 -104.472328 63.684334 -173.823587 16.080894 -8.125776 29.159595 42.334842 16.856389 76.302184 0.000000 0.000000 0.000000 0.000000 0.000000 0.000000 -109.682270 65.568522 123.349907 179.600388 -60.769958 154.383045 14.161470 -12.893719 13.702353 -22.201972 10.219159 -3.492826 0.000000 0.000000 0.000000 0.000000 0.000000 0.000000 -5.187032 13.537525 -22.573056 7.341336 -1.150327 1.525162 -6.569199 13.022209 0.671803 0.000000 0.000000 0.000000 -3.416735 23.928446 -20.009951 8.916374 -17.779447 -1.460811 -2.595419 -16.496270 16.247214 0.000000 0.000000 0.000000
15.455767 72.798846 348.867804 5.006057 -8.950315 16.184191 -0.233461 -0.365730 -15.638288 0.037202 0.524168 0.158549 -6.471817 -22.599894 -8.772241 0.000000 0.000000 0.000000 -61.867006 22.986242 14.650197 -110.528809 70.714039 169.837744 35.971340 3.932094 55.311328 47.454601 9.690254 94.394357 0.000000 0.000000 0.000000 0.000000 0.000000 0.000000 -76.252814 62.043737 81.641391 163.907742 -61.656981 129.048252 18.328847 -14.773370 17.807915 -26.608637 11.183398 -3.058842 0.000000 0.000000 0.000000 0.000000 0.000000 0.000000 -7.595570 9.997821 -16.258515 6.810863 0.657325 1.757254 -2.145307 6.550855 -0.623463 0.000000 0.000000 0.000000 -8.267771 22.203009 -12.852446 10.106027 -17.043007 -0.943620 2.020690 -16.525405 14.319298 0.000000 0.000000 0.000000
15.601769 73.097570 349.027385 5.002919 -7.027869 9.473174 -0.378581 -0.224205 -9.007327 0.041120 0.569880 0.157262 -7.179166 -16.177921 -6.251842 0.000000 0.000000 0.000000 -45.004262 20.434579 8.147291 -131.930261 66.212926 174.685132 54.836847 14.493470 86.756465 34.367793 -2.404908 69.112003 0.000000 0.000000 0.000000 0.000000 0.000000 0.000000 -53.899600 51.757132 52.069900 142.054777 -64.453672 98.346359 16.204127 -6.533869 12.266271 -21.981674 -6.644746 -3.086922 0.000000 0.000000 0.000000 0.000000 0.000000 0.000000 -9.018693 5.834331 -10.191069 6.273373 2.668447 2.093573 -1.089472 1.631620 -0.651388 0.000000 0.000000 0.000000 -10.806655 19.310226 -6.072039 9.500195 -16.319723 -1.033528 11.749605 -7.171300 2.617668 0.000000 0.000000 0.000000
